# xmcd
#
# Track frame offsets:
#	150
#	36806
#	72529
#	97634
#	137007
#	184331
#	227023
#	266213
#
# Disc length: 4359 seconds
#
# Revision: 5
# Processed by: cddbd v1.5.2PL0 Copyright (c) Steve Scherf et al.
# Submitted via: audiograbber 1.83.01
#
DISCID=6d110508
DTITLE=Bill Bruford and Tim Garland - Earthworks Underground Orchestra-2019 Summe
DTITLE=rfold Remaster
DYEAR=2006
DGENRE=Jazz
TTITLE0=Libreville
TTITLE1=Up North
TTITLE2=Pigalle
TTITLE3=Speaking In Wooden Tongues
TTITLE4=Footloose And Fancy Free
TTITLE5=Bajo Del Sol
TTITLE6=It Needn't End In Tears
TTITLE7=The Wooden Man Sings, And The Stone Woman Dances
EXTD=
EXTT0=
EXTT1=
EXTT2=
EXTT3=
EXTT4=
EXTT5=
EXTT6=
EXTT7=
PLAYORDER=
